<svg xmlns="http://www.w3.org/2000/svg" viewBox="0 -0.5 390 204" shape-rendering="crispEdges"><path stroke="#1f6bd3" d="M326 8h4m-5 1h5m-6 1h7m-8 1h9m-10 1h11m-12 1h14m-15 1h16m-16 1h16m-17 1h17m-19 1h20m-20 1h20m-21 1h21m-23 1h24m-25 1h26m-26 1h26m-29 1h30m-32 1h33m-34 1h34m-37 1h38m-39 1h39m-42 1h43M35 29h4m259 0h45M35 30h6m257 0h45M34 31h9m253 0h47M34 32h10m252 0h48M33 33h12m250 0h49M32 34h14m249 0h49M31 35h16m247 0h51M31 36h18m244 0h52M29 37h21m243 0h52M28 38h23m241 0h54M27 39h24m241 0h55M27 40h26m239 0h55m6 0h1M26 41h28m237 0h57m4 0h4M26 42h28m236 0h58m4 0h5M25 43h30m212 0h3m19 0h59m3 0h6M15 44h2m7 0h32m210 0h4m19 0h59m2 0h7M13 45h6m4 0h33m210 0h4m19 0h69M12 46h8m2 0h35m208 0h5m17 0h72M9 47h48m207 0h7m16 0h72M7 48h50m206 0h9m14 0h74M4 49h53m205 0h10m13 0h75M0 50h58m203 0h12m11 0h77M0 51h59m202 0h13m10 0h78M0 52h59m201 0h16m7 0h79M0 53h60m199 0h19m4 0h81M0 54h60m199 0h19m3 0h83M0 55h61m196 0h22m2 0h84M0 56h62m195 0h22m1 0h86M0 57h62m194 0h111M0 58h63m193 0h111M0 59h65m189 0h114M0 60h65m189 0h114M0 61h66m187 0h116M0 62h66m186 0h119M0 63h67m184 0h121M0 64h68m182 0h123M0 65h68m181 0h126m5 0h4M0 66h69m180 0h135M0 67h70m177 0h137M0 68h71m176 0h137M0 69h71m175 0h138M0 70h76m169 0h139M0 71h78m166 0h140M0 72h79m165 0h140M0 73h82m160 0h142M0 74h85m18 0h3m135 0h143M0 75h86m16 0h4m135 0h144M0 76h88m13 0h6m79 0h4m50 0h145M0 77h90m11 0h6m77 0h7m48 0h145M0 78h92m8 0h8m72 0h12m47 0h145M0 79h93m5 0h10m67 0h18m45 0h146M0 80h109m65 0h20m44 0h146M0 81h110m63 0h22m41 0h148M0 82h111m61 0h23m41 0h148M0 83h112m59 0h25m39 0h149M0 84h113m57 0h27m37 0h150M0 85h114m54 0h31m34 0h151M0 86h116m45 0h40m29 0h154M0 87h116m41 0h46m26 0h155M0 88h118m33 0h55m20 0h158M0 89h120m27 0h60m15 0h162M0 90h121m22 0h65m6 0h170M0 91h125m15 0h70m1 0h173M0 92h132m3 0h249M0 93h384M0 94h384M0 95h384M0 96h384M0 97h384M0 98h384M0 99h384M0 100h384M0 101h384M0 102h384M0 103h384M0 104h384M0 105h384M0 106h384M0 107h384M0 108h384M0 109h384M0 110h384M0 111h384M0 112h384M0 113h384M0 114h384M0 115h384M0 116h384M0 117h384M0 118h384M0 119h384M0 120h384M0 121h384M0 122h384M0 123h384M0 124h384M0 125h384M0 126h384M0 127h384M0 128h384M0 129h384M0 130h384M0 131h384M0 132h384M0 133h384M0 134h384M0 135h384M0 136h384M0 137h384M0 138h384M0 139h384M0 140h384M0 141h384M0 142h384M0 143h384M0 144h384M0 145h384M0 146h384M0 147h384M0 148h384M0 149h384M0 150h384M0 151h384M0 152h384M0 153h384M0 154h384M0 155h384M0 156h384M0 157h384M0 158h384M0 159h384M0 160h384M0 161h384M0 162h384M0 163h384M0 164h384M0 165h384M0 166h384M0 167h384M0 168h384M0 169h384M0 170h384M0 171h384M0 172h384M0 173h384M0 174h384M0 175h384M0 176h384M0 177h384M0 178h384M0 179h384M0 180h384M0 181h384M0 182h384M0 183h384M0 184h384M0 185h384M0 186h384M0 187h384M0 188h384M0 189h384M0 190h384M0 191h384M0 192h384M0 193h384M0 194h384M0 195h384M0 196h384M0 197h384M0 198h384M0 199h384M0 200h384M0 201h384M0 202h384M0 203h384"/></svg>