<svg xmlns="http://www.w3.org/2000/svg" viewBox="0 -0.5 384 204" shape-rendering="crispEdges"><path stroke="#78b5e6" d="M372 92h1m-2 1h2m-2 1h2m-2 1h2m-2 1h2m-2 1h2m-3 1h3m-3 1h3m-3 1h3m-4 1h4m-5 1h5m-5 1h5m-6 1h6m-6 1h6m-6 1h6m-7 1h8m-9 1h9m-9 1h10m-334 1h1m276 0h1m45 0h11m-334 1h2m275 0h1m44 0h12m-334 1h2m274 0h2m43 0h14m-336 1h3m274 0h2m43 0h15m-337 1h4m273 0h2m42 0h17m-338 1h4m273 0h3m39 0h15m1 0h5m-341 1h6m272 0h3m38 0h4m2 0h11m1 0h6m-343 1h6m271 0h5m37 0h4m2 0h11m3 0h3m-343 1h8m270 0h5m36 0h3m4 0h11m-337 1h8m269 0h7m41 0h13m-339 1h9m269 0h7m41 0h13m-340 1h11m66 0h3m198 0h8m40 0h15m-341 1h11m65 0h5m197 0h9m39 0h16m-342 1h12m63 0h10m192 0h10m38 0h17m-343 1h14m12 0h13m36 0h12m191 0h10m38 0h18m-345 1h15m9 0h22m6 0h8m16 0h14m188 0h9m1 0h2m36 0h19m-346 1h17m7 0h41m10 0h17m187 0h2m1 0h6m2 0h1m36 0h20m-347 1h18m5 0h69m189 0h9m36 0h21m-349 1h4m2 0h10m3 0h1m5 0h70m188 0h9m36 0h22m-350 1h1m4 0h11m8 0h73m186 0h10m34 0h5m1 0h18m-346 1h11m8 0h74m184 0h12m32 0h5m2 0h13m2 0h3m-347 1h13m6 0h77m181 0h14m30 0h5m3 0h13m-342 1h13m6 0h78m180 0h14m29 0h3m5 0h14m-342 1h14m4 0h79m179 0h15m29 0h1m7 0h14m-343 1h16m3 0h79m178 0h17m35 0h15m-343 1h16m3 0h79m162 0h3m13 0h18m33 0h17m-345 1h18m1 0h80m140 0h4m13 0h9m11 0h4m1 0h10m3 0h1m32 0h18m-346 1h19m1 0h79m140 0h28m10 0h3m2 0h10m36 0h19m-347 1h90m1 0h1m146 0h30m9 0h1m4 0h10m35 0h20m-349 1h89m150 0h32m13 0h11m33 0h22m-352 1h22m2 0h65m152 0h34m10 0h13m32 0h22m-351 1h19m3 0h63m154 0h37m7 0h14m31 0h24m-347 1h14m3 0h60m156 0h40m4 0h16m30 0h24m-347 1h15m2 0h2m2 0h54m157 0h41m4 0h17m28 0h25m-347 1h16m1 0h2m2 0h53m157 0h43m2 0h19m26 0h27m-348 1h16m5 0h53m156 0h40m5 0h20m26 0h11m1 0h15m-348 1h16m5 0h53m155 0h41m5 0h21m24 0h10m3 0h4m1 0h11m-350 1h18m3 0h26m5 0h2m1 0h20m153 0h43m5 0h6m2 0h4m6 0h4m22 0h7m6 0h5m4 0h9m-351 1h19m2 0h18m17 0h19m159 0h37m3 0h4m6 0h4m8 0h2m35 0h5m6 0h7M0 149h3m29 0h40m18 0h19m158 0h37m3 0h2m8 0h4m9 0h1m35 0h5m8 0h5M0 150h12m19 0h41m18 0h19m158 0h37m12 0h5m9 0h1m34 0h6m12 0h1M0 151h27m4 0h31m1 0h10m17 0h19m158 0h37m12 0h5m20 0h18m6 0h7M0 152h62m1 0h10m16 0h9m1 0h10m158 0h37m12 0h5m8 0h43M0 153h62m2 0h9m16 0h9m1 0h11m157 0h37m11 0h69M0 154h61m3 0h9m16 0h9m1 0h11m157 0h37m11 0h69M0 155h62m2 0h9m16 0h9m1 0h11m157 0h38m5 0h74M0 156h77m12 0h9m2 0h10m157 0h117M0 157h88m1 0h9m2 0h11m156 0h117M0 158h99m2 0h11m155 0h117M0 159h112m155 0h117M0 160h113m144 0h127M0 161h128m116 0h140M0 162h147m47 0h190M0 163h163m9 0h212M0 164h384M0 165h384M0 166h384M0 167h384M0 168h384M0 169h384M0 170h384M0 171h384M0 172h384M0 173h384M0 174h384M0 175h384M0 176h384M0 177h384M0 178h384M0 179h384M0 180h384M0 181h384M0 182h384M0 183h384M0 184h384M0 185h384M0 186h384M0 187h384M0 188h384M0 189h384M0 190h384M0 191h384M0 192h384M0 193h384M0 194h384M0 195h384M0 196h384M0 197h384M0 198h384M0 199h384M0 200h384M0 201h384M0 202h384M0 203h384"/><path stroke="#4691dd" d="M62 155h2"/></svg>