<svg xmlns="http://www.w3.org/2000/svg" viewBox="0 -0.5 48 48" shape-rendering="crispEdges"><path stroke="#b6d7ed" d="M20 5h4m-6 1h2m4 0h1m-8 1h1m7 0h1m2 0h2M17 8h1m8 0h2m2 0h1M16 9h1m14 0h2m-18 1h1m16 0h3m-22 1h2m20 0h1m-24 1h1m23 0h1m-25 1h1m23 0h1m-27 1h2m25 0h2M9 15h1m29 0h2M9 16h1m30 0h2M8 17h2m31 0h1M8 18h1m17 0h1m14 0h2M8 19h1m17 0h2m14 0h1M6 20h3m18 0h1m14 0h1M5 21h1m35 0h2M4 22h1m17 0h2m16 0h2M4 23h1m16 0h4m11 0h5M4 24h1m15 0h6m7 0h7M4 25h1m16 0h4m9 0h5M4 26h1m17 0h2m10 0h5M4 27h1m24 0h1m5 0h3M4 28h1m5 0h2m5 0h1m10 0h3m5 0h2M4 29h8m4 0h3m8 0h4m6 0h1M5 30h6m5 0h4m8 0h4m5 0h1M8 31h3m4 0h4m11 0h4m3 0h1M9 32h1m5 0h3m13 0h4m1 0h2M9 33h1m4 0h3m15 0h5M9 34h1m2 0h4m5 0h1m4 0h2m5 0h3m-26 1h6m4 0h3m3 0h3m4 0h1m-21 1h2m4 0h4m3 0h4m2 0h2m-20 1h1m3 0h2m2 0h1m4 0h6m-19 1h5m3 0h1m4 0h2m-7 1h1m4 0h1m-6 1h2m2 0h2m-5 1h4"/><path stroke="#fff" d="M20 6h4m-6 1h7m-7 1h3m2 0h3m2 0h2M17 9h3m4 0h7m-15 1h4m5 0h4m2 0h1m-17 1h4m6 0h1m5 0h4m-22 1h6m11 0h6m-23 1h1m16 0h3m2 0h1m-24 1h2m15 0h3m3 0h2m-27 1h4m15 0h2m4 0h4m-29 1h5m14 0h1m5 0h5m-28 1h4m19 0h1m1 0h4m-27 1h4m-3 1h3m-9 1h1m-4 1h5m-6 1h5m-5 1h3"/><path stroke="#1f6bd3" d="M21 8h2m-3 1h4m-4 1h4m-4 1h4m-4 1h4m-4 1h4m-3 1h4m-4 1h4m-4 1h4m-4 1h4m-5 1h6m13 0h2m-22 1h7m9 0h7m-24 1h9m5 0h10m-24 1h23m-24 1h5m2 0h16m-24 1h5m4 0h11M9 24h11m6 0h6M6 25h15m4 0h5M5 26h17m2 0h5M5 27h10m2 0h12M5 28h5m8 0h10m-9 1h8m-7 1h6m-4 1h4m-4 1h4m-4 1h4m-4 1h4m-3 1h3m-3 1h3m-3 1h4m-4 1h4m-4 1h4m-3 1h2"/><path stroke="#d4e9f7" d="M24 10h1m-6 1h1m4 0h1m1 0h1m-8 1h1m4 0h2m-9 1h3m4 0h1m-6 1h2m7 1h1m-1 1h1m1 0h1m-4 1h3m4 0h1m1 0h1m-24 1h1m13 0h2m5 0h5m-25 1h1m3 0h1m14 0h2m-20 1h3m-3 1h3m-8 1h1m5 0h1m-9 1h4m-7 1h4m-4 1h1"/><path stroke="#4691dd" d="M29 10h2m-4 1h4m-5 1h4m-16 1h3m8 0h5m3 0h2m-21 1h5m6 0h4m3 0h3m-21 1h7m4 0h3m3 0h4m-20 1h6m4 0h3m3 0h4m-25 1h2m4 0h5m4 0h2m3 0h4M9 18h4m5 0h2m9 0h5M9 19h5m14 0h5m-23 1h5m13 0h4m-21 1h4m-4 1h5m-4 1h4m16 1h1m-3 1h4m-5 1h5m-19 1h2m13 0h5m-23 1h5m14 0h5m-24 1h4m15 0h6m-26 1h5m10 0h2m4 0h5m-26 1h4m4 0h3m4 0h4m4 0h3m-27 1h5m3 0h4m4 0h5m4 0h1m-26 1h4m3 0h5m4 0h6m-22 1h2m4 0h5m7 0h5m-17 1h4m9 0h4m-18 1h4m11 0h2m-17 1h3"/></svg>