<svg xmlns="http://www.w3.org/2000/svg" viewBox="0 -0.5 230 62" shape-rendering="crispEdges"><path stroke="#b6d7ed" d="M46 10h3m-22 1h9m7 0h4m2 0h3m21 0h4m54 0h6M24 12h4m6 0h3m5 0h1m8 0h3m17 0h2m4 0h1m52 0h1m6 0h1m16 0h3m11 0h3M20 13h4m12 0h7m10 0h3m14 0h1m7 0h1m2 0h2m44 0h3m7 0h2m14 0h2m2 0h1m9 0h2m1 0h4m16 0h3M17 14h3m35 0h1m14 0h1m8 0h2m2 0h1m24 0h6m5 0h9m10 0h3m10 0h3m4 0h2m7 0h1m6 0h4m5 0h7m3 0h1m7 0h9M17 15h1m38 0h1m12 0h1m13 0h1m16 0h8m5 0h2m1 0h4m20 0h3m7 0h1m8 0h2m5 0h1m11 0h1m1 0h4m9 0h1m2 0h6m8 0h2M15 16h2m39 0h1m11 0h1m15 0h4m11 0h2m13 0h2m26 0h4m3 0h2m10 0h1m3 0h1m13 0h1m14 0h3m14 0h1M14 17h2m40 0h1m9 0h2m20 0h1m10 0h1m62 0h4m45 0h1M14 18h1m41 0h1m8 0h1m23 0h1m8 0h1m36 0h1m-71 1h1m24 0h2m5 0h1m37 0h1m-73 1h2m26 0h1m5 0h1m36 0h1M34 21h2m26 0h1m29 0h2m39 0h1M30 22h6m12 0h2m12 0h1m30 0h4m33 0h4m18 0h2M26 23h10m9 0h5m7 0h1m4 0h1m33 0h1m31 0h7m7 0h4m6 0h3m18 0h1M23 24h5m3 0h6m7 0h6m7 0h1m21 0h1m32 0h4m3 0h2m7 0h2m4 0h1m6 0h4m7 0h4m16 0h5m29 0h2m2 0h1M23 25h3m6 0h5m7 0h5m9 0h1m20 0h2m23 0h17m7 0h1m5 0h1m6 0h3m7 0h6m14 0h8m7 0h5m11 0h4m2 0h1m1 0h1M32 26h5m22 0h4m17 0h1m22 0h18m6 0h1m6 0h1m16 0h6m14 0h3m3 0h2m7 0h1m2 0h3m1 0h2m7 0h2m5 0h1M32 27h5m19 0h1m46 0h14m3 0h1m6 0h1m23 0h7m13 0h1m6 0h1m7 0h1m5 0h1m1 0h1m8 0h1m5 0h1M32 28h6m17 0h1m19 0h2m16 0h1m9 0h3m5 0h4m5 0h1m6 0h1m24 0h7m11 0h2m6 0h1m14 0h2m14 0h1M32 29h6m16 0h2m18 0h4m11 0h6m18 0h2m38 0h7m10 0h1m22 0h2M31 30h3m2 0h2m16 0h2m17 0h6m7 0h10m18 0h1m39 0h6m34 0h1M30 31h3m3 0h2m17 0h1m1 0h1m16 0h4m9 0h5m2 0h2m18 0h2m39 0h5m34 0h1M26 32h7m4 0h1m17 0h3m17 0h2m10 0h4m4 0h2m18 0h1m40 0h4m34 0h1M24 33h7m1 0h1m4 0h1m18 0h2m24 0h1m5 0h3m4 0h3m17 0h1m26 0h7m7 0h4m33 0h2M23 34h7m2 0h1m4 0h1m7 0h3m8 0h2m5 0h2m5 0h1m10 0h3m5 0h2m4 0h4m16 0h1m25 0h9m6 0h3m34 0h2m7 0h3M23 35h7m14 0h4m8 0h9m4 0h3m8 0h4m6 0h1m4 0h12m8 0h1m25 0h9m6 0h3m35 0h1m7 0h2M23 36h7m14 0h5m8 0h7m5 0h4m8 0h4m5 0h1m3 0h1m4 0h8m8 0h1m25 0h8m7 0h2m9 0h1m26 0h1m7 0h2M23 37h3m3 0h1m14 0h5m8 0h2m2 0h3m4 0h4m11 0h4m3 0h1m10 0h5m9 0h1m25 0h8m7 0h2m9 0h1m26 0h1m9 0h1M23 38h2m4 0h1m14 0h2m2 0h1m8 0h1m4 0h1m5 0h3m13 0h4m1 0h2m23 0h2m25 0h7m8 0h1m9 0h1m27 0h1M24 39h1m19 0h1m4 0h1m7 0h1m4 0h1m4 0h3m15 0h5m24 0h2m39 0h2m8 0h1m28 0h1M24 40h1m18 0h2m4 0h1m7 0h1m4 0h1m2 0h4m5 0h1m4 0h2m5 0h3m24 0h2m40 0h1m9 0h1m28 0h1M24 41h1m18 0h1m13 0h1m5 0h6m4 0h3m3 0h3m4 0h1m1 0h1m24 0h1m40 0h2m8 0h1m19 0h1m9 0h1M43 42h1m20 0h1m2 0h1m4 0h4m3 0h4m2 0h2m1 0h1m23 0h2m8 0h1m5 0h1m24 0h3m8 0h1M50 43h1m13 0h1m2 0h1m3 0h2m2 0h1m4 0h5m3 0h1m8 0h1m11 0h3m11 0h1m3 0h1m10 0h1m12 0h6m6 0h2m18 0h1m11 0h1M42 44h1m25 0h4m3 0h1m4 0h2m1 0h2m3 0h1m10 0h12m13 0h3m12 0h2m9 0h3m2 0h2m5 0h2m15 0h4m12 0h1m3 0h5M36 45h1m5 0h1m28 0h1m3 0h1m4 0h1m3 0h1m16 0h3m6 0h1m14 0h2m13 0h3m6 0h3m4 0h8m16 0h2m14 0h3m4 0h2M24 46h1m13 0h4m9 0h1m4 0h1m14 0h1m4 0h1m2 0h2m20 0h2m7 0h1m14 0h1m15 0h1m8 0h2m8 0h3m17 0h2m14 0h2m6 0h1M17 47h1m6 0h1m14 0h3m10 0h4m20 0h5m21 0h1m22 0h1m15 0h1m8 0h2m9 0h2m17 0h1m16 0h1M18 48h1m20 0h2m12 0h2m23 0h2m22 0h1m47 0h1m10 0h1m18 0h1m16 0h1M19 49h3m18 0h1m12 0h1m24 0h2m70 0h1m10 0h1M19 50h3m18 0h1m38 0h1m-60 1h1m-1 1h1m-1 1h1"/><path stroke="#fff" d="M47 11h2m-21 1h6m9 0h8m22 0h4m54 0h6M24 13h12m7 0h10m18 0h7m52 0h7m18 0h2m12 0h1M20 14h8m6 0h12m5 0h4m16 0h3m2 0h3m2 0h2m45 0h3m4 0h3m16 0h4m10 0h6m16 0h3M18 15h6m13 0h7m26 0h3m4 0h6m25 0h5m7 0h8m8 0h4m11 0h8m8 0h1m3 0h7m6 0h9m9 0h8M17 16h4m48 0h4m5 0h4m19 0h13m2 0h5m15 0h6m9 0h2m5 0h3m5 0h2m6 0h5m1 0h5m6 0h3m3 0h6m6 0h2M16 17h1m51 0h4m6 0h1m5 0h4m12 0h4m8 0h7m20 0h4m8 0h1m7 0h3m4 0h1m25 0h8m10 0h1M66 18h6m11 0h6m10 0h1m13 0h2m46 0h5m28 0h3M66 19h1m16 0h3m2 0h2m8 0h1m63 0h4M65 20h2m15 0h3m3 0h3m-28 1h4m15 0h2m4 0h4m-29 1h5m14 0h1m5 0h5m-28 1h4m19 0h1m1 0h6m-29 1h4m23 0h2m-39 1h1m10 0h3m24 0h1m-39 1h2m36 0h1m-39 1h7m-7 1h6m-5 1h5"/><path stroke="#d4e9f7" d="M28 14h6m12 0h5m80 0h4M24 15h3m9 0h1m7 0h1m9 0h2m78 0h2m32 0h3M21 16h2m14 0h6m12 0h1m21 0h1m43 0h4m10 0h1m17 0h2m17 0h2m11 0h6m12 0h6M17 17h3m17 0h1m3 0h1m30 0h1m4 0h1m1 0h1m24 0h8m7 0h2m14 0h4m13 0h2m19 0h1m15 0h3m8 0h3M15 18h1m56 0h1m4 0h2m32 0h2m2 0h3m18 0h3m13 0h1m7 0h1m5 0h1m25 0h2m3 0h3M70 19h3m4 0h1m35 0h3m45 0h1m32 0h4M72 20h2m40 0h1m47 0h4m29 0h1M81 21h1m80 0h4m-85 1h1m1 0h1m44 0h2m33 0h2m-85 1h3m4 0h1m1 0h1m37 0h1m81 0h2M66 24h1m13 0h2m5 0h5m35 0h1m80 0h2M67 25h1m3 0h1m14 0h2m39 0h1m81 0h1M68 26h3m121 0h1M68 27h3m23 0h2m97 0h1M56 28h1m6 0h1m5 0h1m24 0h2m-40 1h2m5 0h2m30 0h1m-40 1h6m131 0h1M56 31h1m1 0h1m134 0h1m-1 1h1m-1 3h1"/><path stroke="#1f6bd3" d="M74 14h2m-3 1h4m-49 1h7m11 0h8m19 0h4m51 0h5M23 17h13m8 0h10m19 0h4m48 0h9m21 0h3m11 0h2M20 18h16m6 0h13m18 0h4m44 0h13m8 0h9m3 0h5m9 0h4m3 0h11m20 0h3M17 19h18m3 0h3m1 0h14m17 0h4m25 0h8m8 0h16m5 0h12m3 0h6m7 0h5m2 0h18m9 0h9M15 20h19m3 0h19m18 0h4m21 0h13m4 0h17m3 0h15m3 0h6m7 0h5m2 0h20m4 0h12M15 21h15m7 0h11m2 0h6m18 0h4m21 0h14m2 0h13m7 0h16m4 0h6m6 0h5m2 0h21m1 0h14M15 22h11m11 0h8m6 0h5m18 0h4m20 0h15m2 0h11m9 0h8m4 0h4m5 0h6m4 0h6m3 0h20m1 0h13M15 23h7m15 0h6m8 0h5m18 0h4m20 0h14m4 0h3m3 0h4m10 0h4m7 0h4m6 0h5m4 0h5m8 0h16m1 0h11M15 24h6m17 0h5m8 0h5m17 0h6m13 0h2m4 0h5m19 0h4m10 0h4m7 0h4m6 0h7m1 0h6m9 0h6m5 0h3m2 0h5M15 25h6m7 0h2m8 0h5m8 0h5m16 0h7m9 0h7m2 0h5m20 0h4m10 0h4m6 0h4m8 0h12m10 0h5m11 0h5M16 26h6m4 0h5m7 0h5m6 0h6m16 0h9m5 0h10m2 0h5m20 0h4m10 0h4m4 0h6m9 0h11m10 0h5m11 0h5M16 27h15m7 0h5m2 0h10m16 0h23m3 0h5m20 0h4m10 0h13m11 0h9m11 0h5m11 0h5M16 28h15m8 0h15m16 0h5m2 0h16m4 0h5m20 0h4m10 0h15m10 0h8m11 0h5m11 0h5M16 29h15m8 0h14m16 0h5m4 0h11m8 0h6m3 0h5m11 0h4m10 0h16m9 0h8m11 0h5m11 0h10M16 30h13m10 0h14m9 0h11m6 0h6m12 0h15m10 0h4m10 0h17m9 0h6m12 0h5m11 0h11M16 31h10m13 0h15m5 0h15m4 0h5m15 0h15m9 0h5m9 0h18m8 0h6m12 0h5m11 0h11M16 32h6m17 0h6m3 0h6m4 0h17m2 0h5m17 0h15m8 0h5m9 0h6m7 0h5m7 0h6m13 0h5m11 0h10M16 33h6m17 0h5m5 0h6m3 0h10m2 0h12m18 0h14m8 0h5m9 0h4m10 0h5m6 0h6m13 0h5m11 0h6M16 34h6m17 0h4m6 0h6m3 0h5m8 0h10m27 0h6m8 0h5m9 0h4m11 0h4m6 0h6m13 0h4m12 0h5M16 35h6m16 0h5m7 0h5m17 0h8m29 0h5m9 0h4m9 0h4m11 0h4m5 0h6m13 0h5m12 0h5M17 36h5m16 0h5m7 0h6m17 0h6m30 0h5m9 0h4m9 0h4m10 0h5m5 0h6m13 0h5m13 0h4M17 37h5m16 0h5m7 0h6m19 0h4m17 0h3m9 0h5m10 0h4m9 0h4m10 0h5m4 0h6m14 0h5m13 0h4M17 38h5m16 0h5m7 0h6m19 0h4m16 0h7m4 0h7m10 0h5m8 0h5m8 0h6m3 0h7m14 0h5m13 0h5M17 39h5m16 0h5m8 0h5m19 0h4m16 0h17m11 0h5m8 0h6m6 0h6m4 0h6m15 0h5m13 0h12M17 40h6m15 0h4m9 0h5m19 0h4m16 0h17m11 0h5m8 0h17m4 0h6m16 0h4m14 0h14M17 41h6m14 0h5m9 0h5m20 0h3m17 0h15m13 0h4m9 0h15m5 0h6m16 0h4m14 0h14M17 42h7m13 0h5m9 0h5m20 0h3m18 0h12m15 0h3m11 0h13m6 0h5m18 0h3m15 0h13M17 43h7m13 0h5m10 0h4m20 0h4m62 0h7m9 0h4m42 0h6M17 44h7m14 0h3m11 0h4m20 0h4m-62 1h6m28 0h3m21 0h4m-62 1h5m54 0h2m-59 1h2"/><path stroke="#78b5e6" d="M27 15h9m9 0h9m74 0h6M23 16h5m7 0h2m6 0h3m8 0h1m70 0h3m5 0h2m20 0h3m10 0h4M20 17h3m13 0h1m1 0h3m1 0h2m10 0h2m65 0h4m9 0h1m8 0h8m3 0h1m3 0h1m8 0h2m2 0h2m1 0h15m14 0h7M16 18h4m16 0h6m13 0h1m44 0h11m7 0h3m13 0h1m4 0h3m9 0h1m1 0h1m5 0h1m7 0h1m4 0h3m11 0h6m8 0h6m3 0h2M14 19h3m18 0h3m3 0h1m14 0h1m42 0h3m8 0h3m3 0h2m16 0h1m1 0h3m12 0h3m6 0h1m5 0h1m5 0h2m18 0h2m4 0h3m9 0h1M14 20h1m19 0h3m19 0h1m41 0h1m13 0h2m1 0h1m17 0h1m1 0h1m15 0h3m6 0h2m4 0h1m5 0h2m20 0h1m1 0h2m12 0h1M14 21h1m15 0h4m2 0h1m11 0h2m6 0h1m40 0h2m14 0h2m13 0h5m1 0h1m16 0h4m6 0h1m4 0h1m5 0h2m21 0h1m14 0h1M14 22h1m11 0h4m6 0h1m8 0h3m2 0h1m5 0h1m40 0h1m15 0h2m11 0h2m6 0h1m8 0h4m4 0h1m2 0h2m6 0h1m2 0h1m6 0h3m20 0h1m13 0h2M14 23h1m7 0h4m10 0h1m6 0h2m5 0h1m5 0h1m40 0h1m14 0h4m3 0h3m4 0h1m8 0h1m4 0h2m4 0h1m4 0h1m3 0h2m5 0h4m5 0h2m1 0h5m16 0h1m11 0h2M14 24h1m6 0h2m5 0h3m6 0h1m5 0h1m6 0h1m5 0h1m39 0h2m5 0h9m4 0h3m2 0h1m4 0h1m8 0h1m4 0h1m4 0h2m4 0h1m4 0h1m7 0h1m6 0h1m5 0h3m6 0h5m3 0h2m5 0h5M14 25h1m6 0h2m3 0h2m2 0h2m5 0h1m5 0h1m5 0h2m5 0h1m39 0h1m5 0h2m17 0h1m4 0h1m8 0h1m4 0h1m3 0h2m4 0h1m6 0h1m12 0h1m8 0h1m5 0h1m5 0h5m5 0h1M14 26h2m6 0h4m5 0h1m5 0h1m5 0h6m6 0h2m39 0h1m5 0h1m18 0h1m4 0h1m8 0h1m4 0h4m6 0h1m6 0h2m11 0h1m8 0h1m5 0h1m9 0h1m5 0h1M14 27h2m15 0h1m5 0h1m5 0h2m10 0h1m40 0h1m5 0h1m18 0h1m4 0h1m8 0h1m13 0h2m7 0h2m9 0h2m8 0h1m5 0h1m9 0h1m5 0h2M15 28h1m15 0h1m6 0h1m15 0h1m41 0h1m5 0h1m3 0h5m10 0h1m4 0h1m8 0h1m15 0h1m7 0h2m8 0h1m9 0h1m5 0h1m9 0h1m5 0h5M15 29h1m15 0h1m6 0h1m14 0h1m42 0h1m6 0h3m5 0h2m8 0h1m4 0h1m8 0h1m16 0h1m7 0h1m8 0h1m9 0h1m5 0h1m9 0h1m10 0h2M15 30h1m13 0h2m7 0h1m14 0h1m42 0h1m15 0h2m7 0h1m4 0h1m8 0h1m17 0h1m6 0h2m6 0h2m9 0h1m5 0h1m9 0h1m11 0h1M15 31h1m10 0h4m8 0h1m15 0h1m41 0h2m15 0h1m7 0h1m5 0h1m7 0h1m18 0h1m5 0h2m6 0h1m10 0h1m5 0h1m9 0h1m11 0h1M15 32h1m6 0h4m12 0h1m6 0h3m6 0h1m42 0h2m15 0h1m6 0h1m5 0h1m7 0h1m6 0h7m5 0h2m4 0h1m6 0h2m10 0h1m5 0h1m9 0h1m10 0h2M15 33h1m6 0h2m14 0h1m5 0h5m6 0h1m42 0h2m14 0h1m6 0h1m5 0h1m7 0h1m4 0h2m7 0h1m5 0h1m4 0h1m6 0h2m10 0h1m5 0h1m9 0h1m6 0h5M15 34h1m6 0h1m15 0h1m4 0h2m3 0h1m6 0h1m43 0h9m6 0h1m12 0h1m7 0h1m4 0h1m9 0h1m4 0h1m3 0h2m6 0h1m10 0h2m4 0h2m9 0h1m5 0h1M15 35h1m6 0h1m14 0h1m5 0h1m4 0h2m5 0h1m51 0h2m5 0h1m7 0h1m4 0h1m7 0h1m4 0h1m9 0h1m4 0h1m3 0h1m6 0h2m10 0h1m5 0h1m10 0h1m5 0h1M15 36h2m5 0h1m14 0h1m5 0h1m5 0h1m6 0h1m38 0h4m8 0h2m5 0h1m7 0h1m4 0h1m7 0h1m4 0h1m8 0h1m5 0h1m2 0h2m6 0h1m11 0h1m5 0h1m10 0h2m4 0h1M16 37h1m5 0h1m14 0h1m5 0h1m5 0h1m6 0h1m37 0h2m3 0h2m5 0h2m5 0h2m7 0h1m4 0h1m7 0h1m4 0h1m8 0h1m5 0h1m2 0h1m6 0h2m11 0h1m5 0h1m10 0h2m4 0h3M16 38h1m5 0h1m14 0h1m5 0h1m5 0h1m6 0h1m37 0h1m7 0h4m7 0h1m8 0h1m5 0h1m6 0h1m12 0h1m6 0h1m1 0h1m7 0h1m12 0h1m5 0h1m10 0h2m5 0h7M16 39h1m5 0h2m13 0h1m5 0h1m6 0h1m5 0h1m37 0h1m17 0h2m8 0h1m5 0h1m6 0h1m6 0h6m6 0h1m2 0h1m6 0h1m13 0h1m5 0h1m10 0h2m12 0h2M16 40h1m6 0h1m13 0h1m4 0h1m7 0h1m5 0h1m37 0h1m17 0h1m9 0h1m5 0h1m6 0h1m17 0h2m1 0h1m6 0h2m13 0h1m4 0h2m10 0h2m14 0h1M16 41h1m6 0h1m12 0h1m5 0h1m7 0h1m5 0h1m38 0h1m15 0h2m9 0h2m4 0h1m6 0h2m15 0h2m2 0h1m6 0h1m14 0h1m4 0h1m11 0h2m14 0h1M16 42h1m7 0h1m11 0h1m5 0h1m7 0h1m5 0h1m39 0h1m12 0h3m11 0h1m3 0h1m9 0h1m13 0h2m3 0h1m5 0h2m14 0h2m3 0h1m11 0h3m13 0h1M16 43h1m7 0h1m11 0h1m5 0h1m8 0h1m4 0h1m41 0h11m15 0h3m12 0h3m7 0h2m6 0h1m4 0h1m16 0h4m13 0h8m6 0h1M16 44h1m7 0h1m11 0h2m3 0h1m9 0h1m4 0h1m84 0h9m7 0h5m34 0h3m5 0h6M17 45h1m6 0h1m12 0h5m9 0h1m3 0h2m-40 1h1m5 0h1m28 0h4m-38 1h2m2 0h2m-5 1h4"/><path stroke="#4691dd" d="M82 16h2m-4 1h4m-5 1h4m-16 1h3m8 0h5m3 0h2m-21 1h5m6 0h4m3 0h3m-21 1h7m4 0h3m3 0h4m-20 1h6m4 0h3m3 0h4m-25 1h2m4 0h5m4 0h2m3 0h4m-25 1h4m5 0h2m9 0h5m-25 1h5m14 0h5m-23 1h5m13 0h4m-21 1h4m-4 1h5m-4 1h4m16 1h1m-3 1h4m-5 1h5m-19 1h2m13 0h5m-23 1h5m14 0h5m-24 1h4m15 0h6m-26 1h5m10 0h2m4 0h5m-26 1h4m4 0h3m4 0h4m4 0h3m-27 1h5m3 0h4m4 0h5m4 0h1m-26 1h4m3 0h5m4 0h6m-22 1h2m4 0h5m7 0h5m-17 1h4m9 0h4m-18 1h4m11 0h2m-17 1h3"/></svg>