<svg xmlns="http://www.w3.org/2000/svg" viewBox="0 -0.5 384 204" shape-rendering="crispEdges"><path stroke="#4691dd" d="M372 66h3M13 67h1m356 0h5M13 68h2m352 0h9M13 69h2m352 0h9M13 70h3m350 0h11M12 71h4m8 0h2m339 0h12M12 72h4m8 0h2m339 0h13M11 73h6m6 0h4m337 0h14M11 74h6m6 0h4m278 0h1m57 0h15M10 75h9m4 0h4m277 0h2m56 0h16M9 76h10m3 0h5m277 0h2m55 0h18M9 77h9m4 0h6m276 0h3m54 0h19M8 78h1m2 0h6m5 0h6m275 0h4m40 0h2m11 0h21M11 79h7m3 0h7m96 0h4m175 0h5m16 0h1m21 0h4m9 0h23M10 80h8m3 0h8m94 0h7m172 0h6m16 0h1m20 0h8m5 0h26M10 81h9m1 0h1m1 0h5m95 0h10m8 0h3m159 0h6m16 0h2m19 0h9m3 0h27M9 82h10m3 0h5m94 0h13m5 0h5m157 0h8m14 0h3m17 0h41M8 83h12m1 0h7m17 0h1m73 0h27m154 0h10m13 0h3m16 0h42M8 84h12m1 0h8m15 0h2m72 0h29m152 0h2m2 0h7m12 0h5m14 0h43M7 85h12m1 0h10m14 0h2m72 0h31m150 0h1m3 0h4m1 0h3m11 0h5m13 0h44M10 86h8m2 0h10m14 0h3m69 0h34m152 0h5m14 0h7m12 0h44M10 87h8m3 0h10m12 0h4m69 0h34m152 0h5m6 0h1m7 0h7m11 0h45M10 88h9m2 0h7m15 0h5m67 0h37m149 0h7m5 0h1m6 0h8m10 0h46M9 89h19m15 0h6m65 0h39m148 0h8m3 0h2m6 0h2m1 0h3m2 0h1m8 0h47M8 90h20m14 0h1m1 0h6m61 0h44m145 0h9m3 0h2m6 0h1m2 0h3m2 0h1m7 0h48M7 91h22m15 0h4m62 0h46m143 0h11m2 0h3m7 0h5m8 0h49M6 92h24m13 0h5m60 0h51m140 0h16m7 0h5m7 0h50M6 93h25m12 0h6m58 0h61m64 0h1m65 0h18m5 0h7m5 0h51M8 94h23m11 0h8m52 0h67m63 0h1m65 0h1m3 0h7m2 0h5m4 0h64M0 95h2m9 0h21m10 0h8m47 0h73m62 0h2m68 0h8m1 0h6m3 0h64M0 96h6m6 0h4m3 0h11m1 0h2m8 0h1m1 0h6m1 0h1m43 0h78m60 0h2m67 0h14m4 0h65M0 97h9m4 0h3m4 0h10m14 0h6m39 0h84m58 0h3m10 0h1m56 0h14m4 0h65M0 98h16m5 0h15m7 0h8m34 0h89m57 0h4m9 0h2m54 0h16m2 0h66M0 99h52m25 0h98m55 0h6m8 0h2m54 0h17m1 0h2m2 0h62M0 100h52m20 0h104m53 0h5m10 0h2m53 0h19m3 0h63M0 101h53m16 0h108m52 0h6m9 0h2m52 0h18m3 0h65M0 102h57m7 0h114m53 0h5m8 0h3m51 0h17m1 0h68M0 103h180m51 0h5m8 0h4m49 0h13m1 0h73M0 104h183m47 0h7m7 0h4m48 0h6m2 0h3m3 0h74M0 105h186m44 0h8m5 0h6m48 0h3m4 0h3m1 0h76M0 106h187m42 0h9m5 0h5m56 0h80M0 107h189m39 0h11m3 0h5m56 0h81M0 108h191m37 0h8m2 0h1m3 0h6m52 0h84M0 109h195m32 0h2m2 0h6m7 0h5m46 0h89M0 110h202m28 0h8m6 0h6m43 0h91M0 111h207m23 0h9m4 0h8m38 0h95M0 112h214m15 0h10m4 0h9m34 0h98M0 113h218m10 0h13m1 0h9m33 0h100M0 114h220m7 0h22m33 0h102M0 115h222m4 0h18m1 0h3m32 0h104M0 116h242m3 0h3m28 0h108M0 117h249m21 0h114M0 118h384M0 119h384M0 120h384M0 121h384M0 122h384M0 123h384M0 124h384M0 125h384M0 126h384M0 127h384M0 128h384M0 129h384M0 130h384M0 131h384M0 132h384M0 133h384M0 134h384M0 135h384M0 136h384M0 137h384M0 138h384M0 139h384M0 140h384M0 141h384M0 142h384M0 143h384M0 144h384M0 145h384M0 146h384M0 147h384M0 148h384M0 149h384M0 150h384M0 151h384M0 152h384M0 153h384M0 154h384M0 155h384M0 156h384M0 157h384M0 158h384M0 159h384M0 160h384M0 161h384M0 162h384M0 163h384M0 164h384M0 165h384M0 166h384M0 167h384M0 168h384M0 169h384M0 170h384M0 171h384M0 172h384M0 173h384M0 174h384M0 175h384M0 176h384M0 177h384M0 178h384M0 179h384M0 180h384M0 181h384M0 182h384M0 183h384M0 184h384M0 185h384M0 186h384M0 187h384M0 188h384M0 189h384M0 190h384M0 191h384M0 192h384M0 193h384M0 194h384M0 195h384M0 196h384M0 197h384M0 198h384M0 199h384M0 200h384M0 201h384M0 202h384M0 203h384"/></svg>